<svg height="512pt" viewBox="-47 0 512 512.00002" width="512pt" xmlns="http://www.w3.org/2000/svg"><path d="m305.570312 504.5h-267.183593c-17.058594 0-30.886719-13.828125-30.886719-30.890625v-435.222656c0-17.058594 13.828125-30.886719 30.886719-30.886719h340.464843c17.058594 0 30.886719 13.828125 30.886719 30.886719v361.941406c0 57.53125-46.636719 104.171875-104.167969 104.171875zm0 0" fill="#eeeeed"/><path d="m305.570312 504.5c.355469 0 .710938-.023438 1.066407-.027344-182.316407-80.902344-192.449219-338.242187-192.824219-496.972656h-75.425781c-17.058594 0-30.886719 13.828125-30.886719 30.886719v435.222656c0 17.058594 13.828125 30.886719 30.886719 30.886719h267.183593zm0 0" fill="#dfdfdd"/><path d="m320.269531 168.039062h-223.296875c-17.285156 0-31.296875-14.011718-31.296875-31.296874v-45.933594c0-17.285156 14.011719-31.292969 31.296875-31.292969h223.296875c17.285157 0 31.292969 14.007813 31.292969 31.292969v45.933594c0 17.285156-14.007812 31.296874-31.292969 31.296874zm0 0" fill="#7bd0a7"/><path d="m96.972656 59.515625c-17.285156 0-31.296875 14.007813-31.296875 31.292969v45.933594c0 17.285156 14.011719 31.296874 31.296875 31.296874h24.035156c-3.988281-37.480468-5.789062-74.324218-6.589843-108.523437zm0 0" fill="#70bd98"/><path d="m305.570312 504.5c57.53125 0 104.167969-46.640625 104.167969-104.171875l-4.050781 6.488281c-8.695312 13.921875-23.949219 22.378906-40.363281 22.378906-17.058594 0-30.886719 13.828126-30.886719 30.886719 0 16.414063-8.457031 31.671875-22.378906 40.363281zm0 0" fill="#bebfc0"/><path d="m147.636719 248.277344c0 17.183594-13.929688 31.113281-31.113281 31.113281-17.1875 0-31.117188-13.929687-31.117188-31.113281 0-17.1875 13.929688-31.117188 31.117188-31.117188 17.183593 0 31.113281 13.929688 31.113281 31.117188zm0 0" fill="#7397da"/><g fill="#6988c4"><path d="m116.523438 279.390625c8.460937 0 16.125-3.382813 21.734374-8.859375-4.09375-16.882812-7.503906-34.019531-10.34375-51.210938-3.53125-1.390624-7.371093-2.160156-11.390624-2.160156-17.1875 0-31.117188 13.929688-31.117188 31.117188 0 17.183594 13.929688 31.113281 31.117188 31.113281zm0 0"/><path d="m147.636719 339.980469c0 17.183593-13.929688 31.113281-31.113281 31.113281-17.1875 0-31.117188-13.929688-31.117188-31.113281 0-17.1875 13.929688-31.117188 31.117188-31.117188 17.183593 0 31.113281 13.929688 31.113281 31.117188zm0 0"/><path d="m147.636719 431.683594c0 17.183594-13.929688 31.117187-31.113281 31.117187-17.1875 0-31.117188-13.933593-31.117188-31.117187s13.929688-31.117188 31.117188-31.117188c17.183593 0 31.113281 13.933594 31.113281 31.117188zm0 0"/></g><path d="m158.132812 131.160156c0-12.984375-13.214843-23.507812-29.519531-23.507812-16.304687 0-29.519531 10.523437-29.519531 23.507812s13.214844 23.507813 29.519531 23.507813c16.304688 0 29.519531-10.523438 29.519531-23.507813zm0 0" fill="#fff"/><path d="m318.148438 131.160156c0-12.984375-13.21875-23.507812-29.519532-23.507812-16.304687 0-29.523437 10.523437-29.523437 23.507812s13.21875 23.507813 29.523437 23.507813c16.300782 0 29.519532-10.523438 29.519532-23.507813zm0 0" fill="#fff"/><path d="m320.269531 175.539062c21.390625 0 38.792969-17.402343 38.792969-38.796874v-45.933594c0-21.390625-17.402344-38.792969-38.792969-38.792969h-223.296875c-21.394531 0-38.796875 17.402344-38.796875 38.792969v45.933594c0 21.394531 17.402344 38.796874 38.796875 38.796874zm-247.09375-38.796874v-45.933594c0-13.117188 10.675781-23.792969 23.796875-23.792969h223.296875c13.121094 0 23.792969 10.675781 23.792969 23.792969v45.933594c0 13.121093-10.671875 23.796874-23.792969 23.796874h-223.296875c-13.121094 0-23.796875-10.675781-23.796875-23.796874zm198.246094-21.535157c4.144531 0 7.5-3.355469 7.5-7.5v-10.425781c0-4.140625-3.355469-7.5-7.5-7.5-4.140625 0-7.5 3.359375-7.5 7.5v10.425781c0 4.144531 3.359375 7.5 7.5 7.5zm60.414063 125.570313h-22.058594c-4.144532 0-7.5 3.355468-7.5 7.5 0 4.140625 3.355468 7.5 7.5 7.5h22.058594c4.140624 0 7.5-3.359375 7.5-7.5 0-4.144532-3.359376-7.5-7.5-7.5zm-123.214844-117.566406c8.511718 0 16.609375-3.6875 22.210937-10.113282 2.722657-3.121094 2.398438-7.859375-.726562-10.582031-3.121094-2.722656-7.859375-2.398437-10.582031.726563-2.75 3.160156-6.726563 4.972656-10.902344 4.972656-4.175782 0-8.152344-1.8125-10.902344-4.972656-2.722656-3.121094-7.460938-3.449219-10.582031-.726563-3.125 2.722656-3.449219 7.460937-.726563 10.582031 5.597656 6.425782 13.695313 10.113282 22.210938 10.113282zm-62.804688-8.003907c4.144532 0 7.5-3.355469 7.5-7.5v-10.425781c0-4.140625-3.355468-7.5-7.5-7.5-4.140625 0-7.5 3.359375-7.5 7.5v10.425781c0 4.144531 3.359375 7.5 7.5 7.5zm126.261719 217.273438h-96.015625c-4.140625 0-7.5 3.355469-7.5 7.5 0 4.140625 3.359375 7.5 7.5 7.5h96.015625c4.140625 0 7.5-3.359375 7.5-7.5 0-4.144531-3.359375-7.5-7.5-7.5zm137.660156-224.664063c-4.140625 0-7.5 3.355469-7.5 7.5v282.859375l-2.910156 4.667969c-7.375 11.804688-20.085937 18.851562-34.003906 18.851562-10.023438 0-19.15625 3.863282-26 10.175782 0-.0625.007812-.125.007812-.1875 0-4.144532-3.355469-7.5-7.5-7.5h-22.058593c-4.140626 0-7.5 3.355468-7.5 7.5 0 4.140625 3.359374 7.5 7.5 7.5h22.058593c.480469 0 .949219-.050782 1.40625-.136719-3.980469 6.046875-6.304687 13.273437-6.304687 21.035156 0 13.917969-7.046875 26.628907-18.851563 34.003907l-4.664062 2.914062h-218.011719c-4.140625 0-7.5 3.355469-7.5 7.5 0 4.140625 3.359375 7.5 7.5 7.5h220.152344.015625.019531c61.566406-.015625 111.644531-50.105469 111.644531-111.671875v-285.011719c0-4.144531-3.355469-7.5-7.5-7.5zm-79.265625 385.921875c7.339844-9.476562 11.464844-21.207031 11.464844-33.652343 0-12.898438 10.492188-23.390626 23.386719-23.390626 12.449219 0 24.179687-4.125 33.65625-11.460937-8.890625 33.324219-35.183594 59.613281-68.507813 68.503906zm48.378906-493.738281h-340.464843c-21.164063 0-38.386719 17.222656-38.386719 38.390625v435.21875c0 21.167969 17.222656 38.390625 38.386719 38.390625h12.050781c4.144531 0 7.5-3.359375 7.5-7.5 0-4.144531-3.355469-7.5-7.5-7.5h-12.050781c-12.894531 0-23.386719-10.492188-23.386719-23.390625v-435.21875c0-12.898437 10.492188-23.390625 23.386719-23.390625h340.464843c12.898438 0 23.386719 10.492188 23.386719 23.390625v42.179687c0 4.144532 3.359375 7.5 7.5 7.5 4.144531 0 7.5-3.355468 7.5-7.5v-42.179687c0-21.167969-17.21875-38.390625-38.386719-38.390625zm-106.773437 240.777344h-96.015625c-4.140625 0-7.5 3.355468-7.5 7.5 0 4.140625 3.359375 7.5 7.5 7.5h96.015625c4.140625 0 7.5-3.359375 7.5-7.5 0-4.144532-3.359375-7.5-7.5-7.5zm-86.488281-50.003906c-2.929688-2.929688-7.675782-2.929688-10.605469 0l-55.308594 55.308593-7.960937-7.964843c-2.929688-2.925782-7.679688-2.925782-10.609375.003906-2.925781 2.925781-2.925781 7.675781 0 10.605468l13.265625 13.265626c1.464844 1.464843 3.386718 2.195312 5.304687 2.195312s3.839844-.730469 5.304688-2.195312l60.609375-60.613282c2.929687-2.929687 2.929687-7.675781 0-10.605468zm86.488281 233.410156h-96.015625c-4.140625 0-7.5 3.355468-7.5 7.5 0 4.140625 3.359375 7.5 7.5 7.5h96.015625c4.140625 0 7.5-3.359375 7.5-7.5 0-4.144532-3.359375-7.5-7.5-7.5zm59.757813-91.703125h-22.058594c-4.144532 0-7.5 3.355469-7.5 7.5 0 4.140625 3.355468 7.5 7.5 7.5h22.058594c4.140624 0 7.5-3.359375 7.5-7.5 0-4.144531-3.359376-7.5-7.5-7.5zm0 0"/></svg>